<svg aria-hidden="true" style="position: absolute; width: 0; height: 0; overflow: hidden;" version="1.1" xmlns="http://www.w3.org/2000/svg" xmlns:xlink="http://www.w3.org/1999/xlink">
<defs>
<symbol id="icon-chevron-left" viewBox="0 0 32 32">
<path d="M19.493 6.728c-0.316 0.161-8.621 8.48-8.775 8.788-0.069 0.141-0.112 0.307-0.117 0.482l-0 0.002c0 0.148 0.047 0.341 0.117 0.484 0.167 0.333 8.464 8.631 8.797 8.797 0.471 0.235 0.957 0.115 1.419-0.347 0.463-0.463 0.581-0.948 0.347-1.419-0.084-0.165-1.204-1.324-3.752-3.876l-3.635-3.64 3.635-3.64c2.548-2.552 3.668-3.711 3.752-3.876 0.235-0.471 0.116-0.956-0.347-1.419-0.453-0.453-0.977-0.576-1.441-0.337z"></path>
</symbol>
<symbol id="icon-chevron-right" viewBox="0 0 32 32">
<path d="M11.501 6.727c-0.275 0.145-0.64 0.517-0.784 0.799-0.072 0.139-0.114 0.304-0.114 0.478 0 0.175 0.043 0.341 0.118 0.487l-0.003-0.006c0.084 0.165 1.204 1.324 3.752 3.876l3.635 3.64-3.635 3.64c-2.548 2.552-3.668 3.711-3.752 3.876-0.235 0.471-0.116 0.956 0.347 1.419 0.461 0.461 0.948 0.581 1.419 0.347 0.333-0.167 8.631-8.464 8.797-8.797 0.070-0.141 0.112-0.307 0.117-0.482l0-0.002c-0.005-0.177-0.048-0.343-0.12-0.491l0.003 0.007c-0.161-0.324-8.463-8.631-8.785-8.791-0.145-0.069-0.316-0.109-0.496-0.109-0.181 0-0.353 0.041-0.506 0.114l0.007-0.003z"></path>
</symbol>
</defs>
</svg>
