<svg aria-hidden="true" style="position: absolute; width: 0; height: 0; overflow: hidden;" version="1.1" xmlns="http://www.w3.org/2000/svg" xmlns:xlink="http://www.w3.org/1999/xlink">
<defs>
<symbol id="icon-chevron-left" viewBox="0 0 32 32">
<path d="M19.493 6.728c-0.316 0.161-8.621 8.48-8.775 8.788-0.069 0.141-0.112 0.307-0.117 0.482l-0 0.002c0 0.148 0.047 0.341 0.117 0.484 0.167 0.333 8.464 8.631 8.797 8.797 0.471 0.235 0.957 0.115 1.419-0.347 0.463-0.463 0.581-0.948 0.347-1.419-0.084-0.165-1.204-1.324-3.752-3.876l-3.635-3.64 3.635-3.64c2.548-2.552 3.668-3.711 3.752-3.876 0.235-0.471 0.116-0.956-0.347-1.419-0.453-0.453-0.977-0.576-1.441-0.337z"></path>
</symbol>
<symbol id="icon-chevron-right" viewBox="0 0 32 32">
<path d="M11.501 6.727c-0.275 0.145-0.64 0.517-0.784 0.799-0.072 0.139-0.114 0.304-0.114 0.478 0 0.175 0.043 0.341 0.118 0.487l-0.003-0.006c0.084 0.165 1.204 1.324 3.752 3.876l3.635 3.64-3.635 3.64c-2.548 2.552-3.668 3.711-3.752 3.876-0.235 0.471-0.116 0.956 0.347 1.419 0.461 0.461 0.948 0.581 1.419 0.347 0.333-0.167 8.631-8.464 8.797-8.797 0.070-0.141 0.112-0.307 0.117-0.482l0-0.002c-0.005-0.177-0.048-0.343-0.12-0.491l0.003 0.007c-0.161-0.324-8.463-8.631-8.785-8.791-0.145-0.069-0.316-0.109-0.496-0.109-0.181 0-0.353 0.041-0.506 0.114l0.007-0.003z"></path>
</symbol>
<symbol id="icon-heart" viewBox="0 0 32 32">
<path stroke-linejoin="round" stroke-linecap="round" stroke-miterlimit="4" stroke-width="2.6667" d="M27.787 6.147c-1.327-1.328-3.161-2.149-5.187-2.149s-3.859 0.821-5.187 2.149l-1.413 1.413-1.413-1.413c-1.327-1.327-3.161-2.148-5.187-2.148-4.051 0-7.335 3.284-7.335 7.335 0 2.026 0.821 3.859 2.148 5.187l11.787 11.787 11.787-11.787c1.328-1.327 2.15-3.161 2.15-5.187s-0.822-3.86-2.15-5.187l-0-0z"></path>
</symbol>
<symbol id="youtube" viewBox="0 0 32 32">
<path opacity="0.8" d="M24.24 6c-1.36-0.080-4.16-0.16-8.4-0.16h-0.56c-4.080 0-6.8 0.080-8.16 0.24-1.84 0.16-3.12 0.64-3.84 1.28-0.64 0.56-1.12 1.6-1.28 2.96-0.080 0.88-0.16 2.72-0.16 5.52v0.4c0 2.64 0.080 4.48 0.24 5.36 0.24 1.28 0.64 2.24 1.44 2.8 0.8 0.64 2.16 1.040 4.080 1.2 1.36 0.080 4.16 0.16 8.4 0.16h0.56c4.080 0 6.8-0.080 8.16-0.24 1.84-0.16 3.12-0.64 3.84-1.28 0.64-0.56 1.12-1.6 1.28-2.96 0.080-0.88 0.16-2.72 0.16-5.52v-0.4c0-2.64-0.080-4.48-0.24-5.36-0.24-1.28-0.64-2.24-1.44-2.8-0.8-0.64-2.16-1.040-4.080-1.2zM21.12 15.84l-8.8 5.28v-10.56l8.8 5.28z"></path>
</symbol>
<symbol id="instagram" viewBox="0 0 32 32">
<path opacity="0.8" d="M28.717 10.756c-0.016-1.074-0.215-2.14-0.596-3.145-0.667-1.716-2.024-3.073-3.743-3.737-0.994-0.373-2.044-0.573-3.108-0.596-1.367-0.061-1.801-0.078-5.273-0.078s-3.916 0-5.274 0.078c-1.062 0.023-2.112 0.223-3.106 0.596-1.719 0.664-3.078 2.021-3.743 3.737-0.374 0.992-0.576 2.041-0.596 3.101-0.061 1.367-0.080 1.8-0.080 5.265s0 3.909 0.080 5.265c0.021 1.062 0.222 2.109 0.596 3.104 0.667 1.714 2.024 3.071 3.744 3.735 0.989 0.386 2.040 0.605 3.106 0.639 1.369 0.061 1.803 0.079 5.274 0.079s3.917 0 5.274-0.079c1.062-0.021 2.112-0.221 3.108-0.595 1.719-0.666 3.076-2.022 3.743-3.737 0.374-0.993 0.574-2.041 0.596-3.104 0.061-1.365 0.080-1.798 0.080-5.265-0.003-3.466-0.003-3.906-0.082-5.264zM15.99 22.531c-3.631 0-6.572-2.936-6.572-6.561s2.941-6.561 6.572-6.561c3.628 0 6.572 2.936 6.572 6.561s-2.944 6.561-6.572 6.561zM22.823 10.696c-0.849 0-1.532-0.684-1.532-1.53s0.684-1.53 1.532-1.53c0.846 0 1.531 0.684 1.531 1.53s-0.685 1.53-1.531 1.53z"></path>
<path opacity="0.8" d="M15.992 19.976c2.211 0 4.004-1.793 4.004-4.004s-1.793-4.004-4.004-4.004c-2.211 0-4.004 1.793-4.004 4.004s1.793 4.004 4.004 4.004z"></path>
</symbol>
<symbol id="facebook" viewBox="0 0 32 32">
<path opacity="0.8" d="M19.52 4.64c0.24 0 0.48 0 0.96 0v3.6c-0.24 0-0.72 0-1.2 0s-0.96 0-1.2 0.24c-0.24 0.24-0.24 0.48-0.24 1.040 0 0.48 0 0.8 0 1.28h2.64v3.040h-2.64v13.2h-4.080v-13.28h-2.16v-3.040h2.16v-1.040c0-1.76 0.24-3.040 0.72-3.6 0.72-1.040 2.16-1.52 4.32-1.52 0.24 0.080 0.48 0.080 0.72 0.080z"></path>
</symbol>
<symbol id="logo" viewBox="0 0 30 32">
<path fill="#fff" style="fill: var(--color2, #fff)" d="M20.989 15.674l-3.46-7.927-0.755-0.523-0.885-0.282-1.197-0.322-1.405 0.604-0.937 0.523 3.538 7.927h5.1z"></path>
<path fill="#fff" style="fill: var(--color2, #fff)" d="M8.571 13.023l3.46 7.945 0.755 0.524 0.885 0.282 1.197 0.323 1.405-0.605 0.937-0.524-3.538-7.945h-5.1z"></path>
<path fill="#fff" style="fill: var(--color1, #fff)" d="M12.166 7.851l-5.372 7.765 5.372 0.058 3.883-7.823c0.273-0.8 1.126-0.333 1.518 0-1.677-3.073-4.3-1.28-5.402 0z"></path>
<path fill="#fff" style="fill: var(--color1, #fff)" d="M17.372 20.867l5.372-7.765-5.372-0.058-3.883 7.823c-0.273 0.8-1.126 0.333-1.518 0 1.677 3.073 4.3 1.28 5.402 0z"></path>
</symbol>
<symbol id="icon-menu-open" viewBox="0 0 32 32">
<path d="M3.56 6.743c-0.307 0.116-0.556 0.328-0.715 0.599l-0.004 0.006c-0.201 0.341-0.209 0.873-0.021 1.256 0.157 0.32 0.521 0.597 0.887 0.677 0.187 0.041 1.929 0.053 5.787 0.041 5.36-0.016 5.527-0.019 5.731-0.12 1.068-0.531 0.995-2.063-0.117-2.46-0.296-0.105-11.251-0.105-11.547 0zM3.556 14.753c-0.488 0.149-0.889 0.712-0.889 1.247 0 0.323 0.159 0.695 0.399 0.935 0.435 0.435-0.751 0.399 12.935 0.399 13.689 0 12.5 0.037 12.936-0.4 0.716-0.716 0.377-1.964-0.6-2.211-0.153-0.039-3.989-0.055-12.373-0.052-10.583 0.003-12.183 0.013-12.407 0.083zM3.697 22.717c-0.159 0.051-0.296 0.113-0.424 0.189l0.009-0.005c-0.925 0.543-0.756 1.988 0.277 2.356 0.296 0.105 16.584 0.105 16.88 0 0.52-0.194 0.883-0.686 0.883-1.263 0-0.309-0.104-0.593-0.279-0.82l0.002 0.003c-0.117-0.129-0.253-0.237-0.405-0.321l-0.008-0.004-0.287-0.159-8.24-0.008c-4.532-0.005-8.316 0.009-8.409 0.032z"></path>
</symbol>
<symbol id="icon-close" viewBox="0 0 20 20">
<path d="M10 8.586l-7.071-7.071-1.414 1.414 7.071 7.071-7.071 7.071 1.414 1.414 7.071-7.071 7.071 7.071 1.414-1.414-7.071-7.071 7.071-7.071-1.414-1.414-7.071 7.071z"></path>
</symbol>
<symbol id="icon-cross-black" viewBox="0 0 32 32"><path d="M8 6.959c-0.287 0.001-0.547 0.118-0.734 0.306l-0 0c-0.188 0.188-0.304 0.448-0.304 0.734s0.116 0.546 0.304 0.734l7.266 7.266-7.266 7.266c-0.188 0.188-0.304 0.448-0.304 0.734s0.116 0.546 0.304 0.734l-0-0c0.188 0.188 0.448 0.304 0.734 0.304s0.546-0.116 0.734-0.304l7.266-7.266 7.266 7.266c0.188 0.188 0.448 0.304 0.734 0.304s0.546-0.116 0.734-0.304l-0 0c0.188-0.188 0.304-0.448 0.304-0.734s-0.116-0.546-0.304-0.734l-7.266-7.266 7.266-7.266c0.188-0.188 0.304-0.448 0.304-0.734s-0.116-0.546-0.304-0.734l0 0c-0.188-0.188-0.448-0.304-0.734-0.304s-0.546 0.116-0.734 0.304l-7.266 7.266-7.266-7.266c-0.188-0.189-0.447-0.306-0.734-0.306h-0z"></path></symbol>
<symbol id="icon-menu-open" viewBox="0 0 32 32">
<path d="M2.667 7.993c0-0.733 0.595-1.327 1.327-1.327h10.68c0.352 0 0.689 0.14 0.938 0.389s0.389 0.586 0.389 0.938c0 0.352-0.14 0.689-0.389 0.938s-0.586 0.389-0.938 0.389h-10.68c-0.352 0-0.689-0.14-0.938-0.389s-0.389-0.586-0.389-0.938zM2.667 16c0-0.733 0.595-1.327 1.327-1.327h24.013c0.352 0 0.689 0.14 0.938 0.389s0.389 0.586 0.389 0.938c0 0.352-0.14 0.689-0.389 0.938s-0.586 0.389-0.938 0.389h-24.013c-0.352 0-0.689-0.14-0.938-0.389s-0.389-0.586-0.389-0.938zM3.993 22.68c-0.352 0-0.689 0.14-0.938 0.389s-0.389 0.586-0.389 0.938c0 0.352 0.14 0.689 0.389 0.938s0.586 0.389 0.938 0.389h16.013c0.352 0 0.689-0.14 0.938-0.389s0.389-0.586 0.389-0.938c0-0.352-0.14-0.689-0.389-0.938s-0.586-0.389-0.938-0.389h-16.013z"></path>
</symbol>
</defs>
</svg>
