<svg xmlns="http://www.w3.org/2000/svg" aria-hidden="true" style="position:absolute;width:0;height:0;overflow:hidden"><defs><symbol id="icon-arrow-left" viewBox="0 0 32 32"><path d="M6.857.381h18.286c3.577 0 6.476 2.9 6.476 6.476v18.286a6.475 6.475 0 0 1-6.476 6.476H6.857a6.475 6.475 0 0 1-6.476-6.476V6.857c0-3.577 2.9-6.476 6.476-6.476z"/><path d="M18.286 20.571 13.715 16l4.571-4.571"/></symbol><symbol id="icon-youtube" viewBox="0 0 32 32"><path d="M21.244 9.636c-.865-.051-2.647-.102-5.345-.102h-.356c-2.596 0-4.327.051-5.193.153-1.171.102-1.985.407-2.444.815-.407.356-.713 1.018-.815 1.884-.051.56-.102 1.731-.102 3.513v.255c0 1.68.051 2.851.153 3.411.153.815.407 1.425.916 1.782.509.407 1.375.662 2.596.764.865.051 2.647.102 5.345.102h.356c2.596 0 4.327-.051 5.193-.153 1.171-.102 1.985-.407 2.444-.815.407-.356.713-1.018.815-1.884.051-.56.102-1.731.102-3.513v-.255c0-1.68-.051-2.851-.153-3.411-.153-.815-.407-1.425-.916-1.782-.509-.407-1.375-.662-2.596-.764zm-1.986 6.262-5.6 3.36v-6.72l5.6 3.36z"/><path d="M7.273.364h17.455a6.909 6.909 0 0 1 6.909 6.909v17.455a6.909 6.909 0 0 1-6.909 6.909H7.273a6.909 6.909 0 0 1-6.909-6.909V7.273A6.909 6.909 0 0 1 7.273.364z"/></symbol><symbol id="icon-instagram" viewBox="0 0 32 32"><path d="M24.093 12.663a5.871 5.871 0 0 0-.393-2.042l.014.04a4.192 4.192 0 0 0-2.354-2.368l-.028-.01a5.895 5.895 0 0 0-1.971-.38h-.006c-.87-.039-1.146-.049-3.355-.049s-2.492 0-3.356.049a5.991 5.991 0 0 0-1.977.38 4.186 4.186 0 0 0-2.372 2.35l-.01.028a5.803 5.803 0 0 0-.379 1.967v.006c-.039.87-.051 1.145-.051 3.351s0 2.487.051 3.351c.013.676.141 1.343.378 1.975a4.19 4.19 0 0 0 2.355 2.368l.028.01c.584.235 1.26.382 1.967.406h.01c.871.039 1.147.051 3.356.051s2.492 0 3.356-.051a5.946 5.946 0 0 0 2.018-.392l-.041.014a4.195 4.195 0 0 0 2.372-2.35l.01-.028a5.918 5.918 0 0 0 .379-1.975c.039-.869.051-1.145.051-3.351-.001-2.205-.001-2.485-.052-3.349zm-8.1 7.493h-.004a4.177 4.177 0 0 1-4.178-4.175 4.177 4.177 0 0 1 4.177-4.175h.005a4.179 4.179 0 0 1 4.182 4.175 4.179 4.179 0 0 1-4.179 4.176h-.003zm4.349-7.531a.973.973 0 1 1 0-1.946h.027a.974.974 0 1 1 0 1.948h-.028.001z"/><path d="M15.995 18.53h.043a2.548 2.548 0 0 0 0-5.096h-.045.002a2.548 2.548 0 0 0-.002 5.096h.002z"/><path d="M7.273.364h17.455a6.909 6.909 0 0 1 6.909 6.909v17.455a6.909 6.909 0 0 1-6.909 6.909H7.273a6.909 6.909 0 0 1-6.909-6.909V7.273A6.909 6.909 0 0 1 7.273.364z"/></symbol><symbol id="icon-facebook" viewBox="0 0 32 32"><path d="M18.24 8.771h.611v2.291h-.764c-.305 0-.611 0-.764.153s-.153.305-.153.662v.815h1.68v1.935h-1.68v8.4h-2.596v-8.451h-1.375v-1.935h1.375v-.662c0-1.12.153-1.935.458-2.291.458-.662 1.375-.967 2.749-.967.153.051.305.051.458.051z"/><path d="M7.273.364h17.455a6.909 6.909 0 0 1 6.909 6.909v17.455a6.909 6.909 0 0 1-6.909 6.909H7.273a6.909 6.909 0 0 1-6.909-6.909V7.273A6.909 6.909 0 0 1 7.273.364z"/></symbol><symbol id="icon-arrow-right" viewBox="0 0 32 32"><path d="M6.857.381h18.286c3.577 0 6.476 2.9 6.476 6.476v18.286a6.475 6.475 0 0 1-6.476 6.476H6.857a6.475 6.475 0 0 1-6.476-6.476V6.857c0-3.577 2.9-6.476 6.476-6.476z"/><path d="M13.714 20.571 18.285 16l-4.571-4.571"/></symbol><symbol id="icon-burger-menu" viewBox="0 0 32 32"><path d="M2.667 7.993c0-.733.595-1.327 1.327-1.327h10.68a1.327 1.327 0 1 1 0 2.654H3.994a1.327 1.327 0 0 1-1.327-1.327zm0 8.007c0-.733.595-1.327 1.327-1.327h24.013a1.327 1.327 0 1 1 0 2.654H3.994A1.327 1.327 0 0 1 2.667 16zm1.326 6.68a1.327 1.327 0 1 0 0 2.654h16.013a1.327 1.327 0 1 0 0-2.654H3.993z"/></symbol><symbol id="icon-cross" viewBox="0 0 32 32"><path d="M24 8 8 24M8 8l16 16"/></symbol><symbol id="icon-heart" viewBox="0 0 32 32"><path d="M27.787 6.147C26.46 4.819 24.626 3.998 22.6 3.998s-3.859.821-5.187 2.149L16 7.56l-1.413-1.413A7.335 7.335 0 0 0 4.213 16.521L16 28.308l11.787-11.787c1.328-1.327 2.149-3.161 2.149-5.187s-.821-3.859-2.149-5.187z"/></symbol><symbol id="icon-logo" viewBox="0 0 30 32"><path d="m18.821 14.656-2.173-4.977-.474-.329-.555-.177-.752-.202-.882.379-.588.328 2.222 4.978h3.203zM11.023 12.991l2.173 4.99.474.329.555.177.752.203.882-.38.588-.329-2.222-4.99h-3.202z"/><path d="M13.281 9.744 9.907 14.62l3.374.036 2.438-4.912c.171-.503.707-.21.954 0-1.053-1.93-2.7-.804-3.392 0zm3.269 8.173 3.374-4.876-3.374-.036-2.438 4.912c-.171.503-.707.21-.954 0 1.053 1.93 2.7.804 3.392 0z"/></symbol><symbol id="icon-cross-alone" viewBox="0 0 64 32"><path d="M3.2 1.067l-2.133 2.133zM1.067 1.067l2.133 2.133z"></path></symbol><symbol id="icon-cross-black" viewBox="0 0 32 32"><path d="M8 6.959c-0.287 0.001-0.547 0.118-0.734 0.306l-0 0c-0.188 0.188-0.304 0.448-0.304 0.734s0.116 0.546 0.304 0.734l7.266 7.266-7.266 7.266c-0.188 0.188-0.304 0.448-0.304 0.734s0.116 0.546 0.304 0.734l-0-0c0.188 0.188 0.448 0.304 0.734 0.304s0.546-0.116 0.734-0.304l7.266-7.266 7.266 7.266c0.188 0.188 0.448 0.304 0.734 0.304s0.546-0.116 0.734-0.304l-0 0c0.188-0.188 0.304-0.448 0.304-0.734s-0.116-0.546-0.304-0.734l-7.266-7.266 7.266-7.266c0.188-0.188 0.304-0.448 0.304-0.734s-0.116-0.546-0.304-0.734l0 0c-0.188-0.188-0.448-0.304-0.734-0.304s-0.546 0.116-0.734 0.304l-7.266 7.266-7.266-7.266c-0.188-0.189-0.447-0.306-0.734-0.306h-0z"></path></symbol></defs></svg>